<?xml version="1.0" encoding="UTF-8"?>
<svg width="25px" height="25px" viewBox="0 0 25 25" version="1.1" xmlns="http://www.w3.org/2000/svg" xmlns:xlink="http://www.w3.org/1999/xlink">
    <!-- Generator: Sketch 47 (45396) - http://www.bohemiancoding.com/sketch -->
    <title>coins</title>
    <desc>Created with Sketch.</desc>
    <defs></defs>
    <g id="Website-0.1" stroke="none" stroke-width="1" fill="none" fill-rule="evenodd">
        <g id="4.-Logout-hover-" transform="translate(-1315.000000, -74.000000)" fill-rule="nonzero">
            <g id="Group-13" transform="translate(1184.000000, 74.000000)">
                <g id="Group-5">
                    <g id="Group-7">
                        <g id="coins" transform="translate(131.000000, 0.000000)">
                            <path d="M22.0351695,12.3775424 L22.0351695,12.9021186 C22.0351695,15.8394068 17.1025424,18.220339 11.0182203,18.220339 C7.65974576,18.220339 4.65423729,17.4940678 2.63347458,16.35 C3.31483051,18.9961864 7.94533898,21.1864407 13.5605932,21.1864407 C19.6449153,21.1864407 24.5775424,18.6152542 24.5775424,15.6779661 C24.5775424,14.3864407 23.6216102,13.2483051 22.0351695,12.3775424" id="XMLID_143_" fill="#FCC62D"></path>
                            <path d="M13.5605932,21.1864407 C7.47627119,21.1864407 2.54364407,18.6152542 2.54364407,15.6779661 L2.54364407,19.2576271 C2.54364407,22.1949153 7.47627119,24.5762712 13.5605932,24.5762712 C19.6449153,24.5762712 24.5775424,22.1949153 24.5775424,19.2576271 L24.5775424,15.6779661 C24.5775424,18.6152542 19.6449153,21.1864407 13.5605932,21.1864407" id="XMLID_142_" fill="#E4AF18"></path>
                            <path d="M3.81483051,21.7580508 C4.06483051,21.9864407 4.34830508,22.2050847 4.66228814,22.4127119 L4.66228814,18.8995763 C4.34830508,18.6834746 4.06483051,18.4567797 3.81483051,18.220339 L3.81483051,21.7580508 Z" id="XMLID_141_" fill="#CE9912"></path>
                            <path d="M22.4588983,18.8995763 L22.4588983,22.4127119 C22.7728814,22.2055085 23.0563559,21.9864407 23.3063559,21.7580508 L23.3063559,18.220339 C23.0567797,18.4567797 22.7733051,18.6834746 22.4588983,18.8995763" id="XMLID_140_" fill="#CE9912"></path>
                            <path d="M5.50974576,22.9067797 C5.77754237,23.045339 6.06059322,23.1762712 6.35720339,23.3004237 L6.35720339,19.8288136 C6.06059322,19.6983051 5.77754237,19.5605932 5.50974576,19.415678 L5.50974576,22.9067797 Z" id="XMLID_139_" fill="#CE9912"></path>
                            <path d="M20.7639831,23.3 C21.0605932,23.1762712 21.3436441,23.0449153 21.6114407,22.9063559 L21.6114407,19.4152542 C21.3436441,19.5601695 21.0605932,19.6983051 20.7639831,19.8283898 L20.7639831,23.3 Z" id="XMLID_138_" fill="#CE9912"></path>
                            <path d="M7.20466102,23.6207627 C7.47838983,23.7144068 7.76101695,23.8016949 8.05211864,23.8830508 L8.05211864,20.4449153 C7.76101695,20.3584746 7.47838983,20.265678 7.20466102,20.1669492 L7.20466102,23.6207627 Z" id="XMLID_137_" fill="#CE9912"></path>
                            <path d="M19.0690678,23.8830508 C19.3601695,23.8016949 19.6427966,23.7144068 19.9165254,23.6207627 L19.9165254,20.1669492 C19.6427966,20.265678 19.3601695,20.3584746 19.0690678,20.4449153 L19.0690678,23.8830508 Z" id="XMLID_136_" fill="#CE9912"></path>
                            <path d="M9.32330508,24.1881356 C9.6,24.2440678 9.88305085,24.2940678 10.1707627,24.3385593 L10.1707627,20.9300847 C9.88305085,20.8822034 9.6,20.8288136 9.32330508,20.7694915 L9.32330508,24.1881356 Z" id="XMLID_135_" fill="#CE9912"></path>
                            <path d="M16.9504237,24.3385593 C17.2381356,24.2936441 17.5211864,24.2436441 17.7978814,24.1881356 L17.7978814,20.7690678 C17.5211864,20.8283898 17.2381356,20.8817797 16.9504237,20.9300847 L16.9504237,24.3385593 Z" id="XMLID_134_" fill="#CE9912"></path>
                            <path d="M11.865678,24.5334746 C12.1444915,24.5542373 12.4275424,24.5686441 12.7131356,24.5788136 L12.7131356,21.1877119 C12.4275424,21.1766949 12.1444915,21.1614407 11.865678,21.1389831 L11.865678,24.5334746 Z" id="XMLID_133_" fill="#CE9912"></path>
                            <path d="M14.4080508,24.5792373 C14.6936441,24.5686441 14.9766949,24.554661 15.2555085,24.5338983 L15.2555085,21.1389831 C14.9766949,21.1614407 14.6936441,21.1766949 14.4080508,21.1881356 L14.4080508,24.5792373 Z" id="XMLID_132_" fill="#CE9912"></path>
                            <path d="M11.0182203,14.8275424 C4.93389831,14.8275424 0.00127118644,12.2563559 0.00127118644,9.3190678 L0.00127118644,12.8987288 C0.00127118644,15.8360169 4.93389831,18.2173729 11.0182203,18.2173729 C17.1025424,18.2173729 22.0351695,15.8360169 22.0351695,12.8987288 L22.0351695,9.3190678 C22.0351695,12.2563559 17.1025424,14.8275424 11.0182203,14.8275424" id="XMLID_131_" fill="#E4AF18"></path>
                            <path d="M1.27245763,15.3991525 C1.52245763,15.6275424 1.8059322,15.8461864 2.11991525,16.0538136 L2.11991525,12.540678 C1.8059322,12.3245763 1.52245763,12.0978814 1.27245763,11.8618644 L1.27245763,15.3991525 Z" id="XMLID_130_" fill="#CE9912"></path>
                            <path d="M19.9165254,12.540678 L19.9165254,16.0538136 C20.2305085,15.8466102 20.5139831,15.6275424 20.7639831,15.3991525 L20.7639831,11.8614407 C20.5144068,12.0978814 20.2309322,12.3245763 19.9165254,12.540678" id="XMLID_129_" fill="#CE9912"></path>
                            <path d="M2.96737288,16.5478814 C3.23516949,16.6864407 3.51822034,16.8173729 3.81483051,16.9415254 L3.81483051,13.4699153 C3.51822034,13.3394068 3.23516949,13.2016949 2.96737288,13.0567797 L2.96737288,16.5478814 Z" id="XMLID_128_" fill="#CE9912"></path>
                            <path d="M18.2216102,16.9411017 C18.5182203,16.8173729 18.8012712,16.6864407 19.0690678,16.5474576 L19.0690678,13.0563559 C18.8012712,13.2012712 18.5182203,13.3394068 18.2216102,13.4694915 L18.2216102,16.9411017 Z" id="XMLID_127_" fill="#CE9912"></path>
                            <path d="M4.66228814,17.2618644 C4.93601695,17.3555085 5.21864407,17.4427966 5.50974576,17.5241525 L5.50974576,14.0860169 C5.21864407,13.9995763 4.93601695,13.9067797 4.66228814,13.8080508 L4.66228814,17.2618644 Z" id="XMLID_126_" fill="#CE9912"></path>
                            <path d="M16.5266949,17.5241525 C16.8177966,17.4427966 17.1004237,17.3555085 17.3741525,17.2618644 L17.3741525,13.8080508 C17.1004237,13.9067797 16.8177966,13.9995763 16.5266949,14.0860169 L16.5266949,17.5241525 Z" id="XMLID_125_" fill="#CE9912"></path>
                            <path d="M6.7809322,17.8292373 C7.05762712,17.8851695 7.34067797,17.9351695 7.62838983,17.979661 L7.62838983,14.5711864 C7.34067797,14.5233051 7.05762712,14.4699153 6.7809322,14.4105932 L6.7809322,17.8292373 Z" id="XMLID_124_" fill="#CE9912"></path>
                            <path d="M14.4080508,17.9800847 C14.6957627,17.9351695 14.9788136,17.8851695 15.2555085,17.829661 L15.2555085,14.4105932 C14.9788136,14.4699153 14.6957627,14.5233051 14.4080508,14.5716102 L14.4080508,17.9800847 Z" id="XMLID_123_" fill="#CE9912"></path>
                            <path d="M9.32330508,18.175 C9.60211864,18.1957627 9.88516949,18.2101695 10.1707627,18.220339 L10.1707627,14.8292373 C9.88516949,14.8182203 9.60211864,14.8029661 9.32330508,14.7805085 L9.32330508,18.175 Z" id="XMLID_122_" fill="#CE9912"></path>
                            <path d="M11.865678,18.220339 C12.1512712,18.2097458 12.434322,18.1957627 12.7131356,18.175 L12.7131356,14.7800847 C12.434322,14.8025424 12.1512712,14.8177966 11.865678,14.8292373 L11.865678,18.220339 Z" id="XMLID_121_" fill="#CE9912"></path>
                            <path d="M21.7457627,14.1110169 C20.6114407,16.4652542 16.2411017,18.220339 11.0182203,18.220339 C9.06737288,18.220339 7.23601695,17.9745763 5.64661017,17.545339 C7.18389831,18.5889831 9.91991525,19.4771186 13.5605932,19.4771186 C19.3580508,19.4771186 22.8826271,17.2266949 22.8826271,15.6779661 C22.8826271,15.1610169 22.4847458,14.6127119 21.7457627,14.1110169" id="XMLID_120_" fill="#FFD949"></path>
                            <path d="M13.1368644,13.9830508 C7.05254237,13.9830508 2.11991525,11.6016949 2.11991525,8.66440678 L2.11991525,6.26949153 C0.788983051,7.10381356 0.00127118644,8.15 0.00127118644,9.3220339 C0.00127118644,12.259322 4.93389831,14.8305085 11.0182203,14.8305085 C13.9478814,14.8305085 16.6080508,14.2334746 18.5813559,13.2872881 C16.975,13.7292373 15.1177966,13.9830508 13.1368644,13.9830508" id="XMLID_119_" fill="#FFD949"></path>
                            <path d="M13.1368644,10.5902542 C7.05254237,10.5902542 2.11991525,8.0190678 2.11991525,5.08177966 L2.11991525,8.66144068 C2.11991525,11.5987288 7.05254237,13.9800847 13.1368644,13.9800847 C19.2211864,13.9800847 24.1538136,11.5987288 24.1538136,8.66144068 L24.1538136,5.08177966 C24.1538136,8.0190678 19.2211864,10.5902542 13.1368644,10.5902542" id="XMLID_118_" fill="#E4AF18"></path>
                            <path d="M3.39110169,11.1618644 C3.64110169,11.3902542 3.92457627,11.6088983 4.23855932,11.8165254 L4.23855932,8.30338983 C3.92457627,8.08728814 3.64110169,7.86059322 3.39110169,7.62457627 L3.39110169,11.1618644 Z" id="XMLID_117_" fill="#CE9912"></path>
                            <path d="M22.0351695,8.30338983 L22.0351695,11.8165254 C22.3491525,11.609322 22.6326271,11.3902542 22.8826271,11.1618644 L22.8826271,7.62415254 C22.6330508,7.86059322 22.3495763,8.08728814 22.0351695,8.30338983" id="XMLID_116_" fill="#CE9912"></path>
                            <path d="M5.08601695,12.3105932 C5.35381356,12.4491525 5.63686441,12.5800847 5.93347458,12.7042373 L5.93347458,9.23262712 C5.63686441,9.10211864 5.35381356,8.96440678 5.08601695,8.81949153 L5.08601695,12.3105932 Z" id="XMLID_115_" fill="#CE9912"></path>
                            <path d="M20.3402542,12.7038136 C20.6368644,12.5800847 20.9199153,12.4491525 21.1877119,12.3101695 L21.1877119,8.8190678 C20.9199153,8.96398305 20.6368644,9.10211864 20.3402542,9.23220339 L20.3402542,12.7038136 Z" id="XMLID_114_" fill="#CE9912"></path>
                            <path d="M6.7809322,13.0245763 C7.05466102,13.1182203 7.33728814,13.2055085 7.62838983,13.2868644 L7.62838983,9.84872881 C7.33728814,9.76228814 7.05466102,9.66949153 6.7809322,9.57076271 L6.7809322,13.0245763 Z" id="XMLID_113_" fill="#CE9912"></path>
                            <path d="M18.645339,13.2868644 C18.9364407,13.2055085 19.2190678,13.1182203 19.4927966,13.0245763 L19.4927966,9.57076271 C19.2190678,9.66949153 18.9364407,9.76228814 18.645339,9.84872881 L18.645339,13.2868644 Z" id="XMLID_112_" fill="#CE9912"></path>
                            <path d="M8.89957627,13.5919492 C9.17627119,13.6478814 9.45932203,13.6978814 9.7470339,13.7423729 L9.7470339,10.3338983 C9.45932203,10.2860169 9.17627119,10.2326271 8.89957627,10.1733051 L8.89957627,13.5919492 Z" id="XMLID_111_" fill="#CE9912"></path>
                            <path d="M16.5266949,13.7427966 C16.8144068,13.6978814 17.0974576,13.6478814 17.3741525,13.5923729 L17.3741525,10.1733051 C17.0974576,10.2326271 16.8144068,10.2860169 16.5266949,10.334322 L16.5266949,13.7427966 Z" id="XMLID_110_" fill="#CE9912"></path>
                            <path d="M11.4419492,13.9377119 C11.7207627,13.9584746 12.0038136,13.9728814 12.2894068,13.9830508 L12.2894068,10.5919492 C12.0038136,10.5809322 11.7207627,10.565678 11.4419492,10.5432203 L11.4419492,13.9377119 Z" id="XMLID_109_" fill="#CE9912"></path>
                            <path d="M13.984322,13.9830508 C14.2699153,13.9724576 14.5529661,13.9584746 14.8317797,13.9377119 L14.8317797,10.5427966 C14.5529661,10.5652542 14.2699153,10.5805085 13.984322,10.5919492 L13.984322,13.9830508 Z" id="XMLID_108_" fill="#CE9912"></path>
                            <path d="M24.1538136,5.08474576 C24.1538136,8.0220339 19.2211864,10.5932203 13.1368644,10.5932203 C7.05254237,10.5932203 2.11991525,8.0220339 2.11991525,5.08474576 C2.11991525,2.14745763 7.05254237,0 13.1368644,0 C19.2211864,0 24.1538136,2.14745763 24.1538136,5.08474576" id="XMLID_107_" fill="#FCC62D"></path>
                            <path d="M13.1368644,8.88389831 C7.33940678,8.88389831 3.81483051,6.63389831 3.81483051,5.08474576 C3.81483051,3.53601695 7.33940678,1.27118644 13.1368644,1.27118644 C18.934322,1.27118644 22.4588983,3.53601695 22.4588983,5.08474576 C22.4588983,6.63389831 18.934322,8.88389831 13.1368644,8.88389831" id="XMLID_106_" fill="#FFD949"></path>
                            <path d="M16.0101695,5.66059322 C16.3576271,5.58686441 16.5614407,5.37245763 16.4864407,5.1279661 L16.4059322,4.86694915 C16.3470339,4.675 16.1177966,4.51483051 15.8368644,4.43516949 C15.454661,3.61864407 14.4800847,3.32288136 13.0326271,3.32288136 C12.9639831,3.32288136 12.8970339,3.32457627 12.8309322,3.32711864 C12.3368644,3.34745763 11.8440678,3.3 11.4597458,3.15932203 C11.3029661,3.10211864 11.1754237,3.04237288 11.0911017,2.98008475 C11.0529661,2.95211864 10.9605932,2.96991525 10.9605932,3.00550847 C10.9605932,3.06737288 10.9652542,3.14067797 10.9788136,3.2220339 C11.0313559,3.53855932 10.9686441,3.49110169 10.6559322,3.80677966 C10.4745763,3.99067797 10.3300847,4.20254237 10.2254237,4.43644068 C9.94618644,4.51652542 9.71822034,4.67627119 9.65932203,4.86737288 L9.57881356,5.12838983 C9.50381356,5.37288136 9.70762712,5.58728814 10.0550847,5.66101695 C10.1542373,6.28644068 10.5792373,6.83559322 11.5059322,7.13813559 L11.4550847,7.57754237 C11.4415254,7.69491525 11.3402542,7.80338983 11.1927966,7.85677966 L9.32372881,8.53135593 C10.4152542,8.76016949 11.659322,8.89830508 13.0326271,8.89830508 C14.3868644,8.89830508 15.6152542,8.76398305 16.6957627,8.54152542 L14.8673729,7.85805085 C14.7228814,7.80381356 14.6237288,7.69618644 14.6105932,7.5809322 L14.559322,7.13813559 C15.4860169,6.83559322 15.9110169,6.28601695 16.0101695,5.66059322" id="XMLID_105_" fill="#F0C41B"></path>
                        </g>
                    </g>
                </g>
            </g>
        </g>
    </g>
</svg>