<?xml version="1.0" encoding="UTF-8"?>
<svg xmlns="http://www.w3.org/2000/svg" xmlns:xlink="http://www.w3.org/1999/xlink" viewBox="0 0 48 48" version="1.1" width="30px" height="30px">
<g id="surface1">
<path style=" fill:#FFFFFF;" d="M 8.5 36.300781 C 9.5 39.300781 12.601563 42.601563 15.699219 43.800781 C 18.101563 44.800781 20.699219 45.199219 23.300781 44.898438 C 25.300781 44.699219 27.101563 44.199219 28.699219 43.398438 C 32 41.699219 34.300781 39.101563 35.699219 35.5 C 36.300781 33.898438 36.699219 32.101563 36.800781 30 C 36.898438 28.398438 36.898438 27 36.601563 25.699219 C 36.398438 24.800781 36.199219 24.101563 35.800781 23.5 C 35.300781 22.800781 34.5 22.300781 33.199219 21.898438 L 31.5 21.398438 L 32.800781 17.699219 C 33.5 15.800781 34.101563 13.898438 34.699219 12 C 35.199219 10.5 35.699219 8.800781 35.898438 7.101563 C 36 6 35.800781 5.199219 35.300781 4.5 C 34.898438 4.101563 34.398438 3.800781 33.800781 3.699219 C 33.300781 3.699219 32.898438 3.800781 32.5 4.199219 C 32.300781 4.398438 32.101563 4.601563 31.898438 4.800781 C 30.800781 6.199219 30 7.699219 29.398438 9 C 28.398438 11 27.601563 13.300781 26.601563 16.199219 C 26.5 16.699219 26.300781 17.101563 26.101563 17.5 L 25.398438 19.398438 L 24.300781 18.5 C 24 18.300781 23.898438 18 23.800781 17.800781 L 23.199219 15.898438 C 22.199219 13.101563 21.199219 10.101563 19.898438 7.398438 C 19.300781 6.199219 18.601563 4.898438 17.699219 3.699219 C 17.300781 3.101563 17 2.898438 16.601563 2.800781 C 15.800781 2.601563 14.699219 2.898438 14.199219 4.101563 C 14.101563 5.199219 14 6 14.199219 6.898438 C 14.5 8.398438 14.800781 9.601563 15.199219 10.699219 C 15.898438 12.898438 16.601563 15.101563 17.398438 17.300781 L 19.398438 23.398438 L 16.699219 21.699219 C 16.300781 21.398438 15.800781 21.300781 15.398438 21.300781 C 15.300781 21.300781 15.199219 21.300781 15.199219 21.300781 C 14.300781 21.398438 13.5 21.800781 12.699219 22.699219 C 11.898438 23.601563 11.800781 24.398438 12.199219 25.5 L 13.199219 28 L 11.199219 28.601563 C 9.5 29.101563 8.5 30.199219 8.300781 31.898438 C 7.898438 33.300781 8 34.699219 8.5 36.300781 Z "/>
<path style=" fill:#455A64;" d="M 11.699219 27.5 C 11.5 27 11.300781 26.5 11.101563 26 C 10.601563 24.601563 10.800781 23.300781 11.800781 22.199219 C 12.601563 21.300781 13.601563 20.601563 14.898438 20.5 C 15.699219 20.398438 16.398438 20.601563 17 21 C 17.101563 21.101563 17.199219 21.101563 17.398438 21.199219 C 17.300781 20.898438 17.199219 20.699219 17.101563 20.398438 C 16.101563 17.300781 15 14.199219 14 11.101563 C 13.601563 9.800781 13.300781 8.5 13 7.199219 C 13 6 13.101563 4.898438 13.5 3.898438 C 14.300781 2.199219 15.800781 1.800781 17 2 C 17.800781 2.199219 18.300781 2.699219 18.699219 3.300781 C 19.601563 4.5 20.300781 5.800781 21 7.199219 C 22.398438 10 23.398438 13 24.398438 16 C 24.601563 16.601563 24.800781 17.101563 25 17.699219 C 25 17.800781 25.101563 17.800781 25.199219 17.898438 C 25.398438 17.300781 25.699219 16.699219 25.898438 16 C 26.699219 13.5 27.601563 11 28.800781 8.699219 C 29.5 7.199219 30.300781 5.601563 31.398438 4.300781 C 31.5 4 31.800781 3.800781 32 3.601563 C 33.398438 2.300781 35.300781 2.699219 36.199219 3.898438 C 37 4.898438 37.199219 6 37.101563 7.199219 C 36.898438 8.898438 36.398438 10.601563 35.898438 12.300781 C 35 15 34 17.699219 33.101563 20.398438 C 33.101563 20.5 33 20.601563 33 20.699219 C 33.199219 20.800781 33.398438 20.800781 33.601563 20.898438 C 34.800781 21.300781 36 21.800781 36.699219 22.898438 C 37.199219 23.699219 37.5 24.601563 37.699219 25.5 C 38 27 38 28.5 37.898438 30 C 37.800781 32 37.398438 34 36.699219 35.800781 C 35.199219 39.5 32.800781 42.398438 29.199219 44.199219 C 27.398438 45.101563 25.398438 45.699219 23.398438 45.800781 C 20.601563 46.101563 17.898438 45.699219 15.300781 44.601563 C 11.898438 43.199219 8.5 39.699219 7.5 36.5 C 7 34.898438 6.800781 33.398438 7 31.699219 C 7.300781 29.601563 8.601563 28.199219 10.601563 27.601563 C 11 27.601563 11.398438 27.601563 11.699219 27.5 Z M 11.199219 33.101563 C 11.300781 33.300781 11.5 33.398438 11.601563 33.601563 C 12.101563 34.199219 12.5 34.800781 13 35.398438 C 13.601563 36.101563 14.199219 36.800781 15 37.101563 C 15.699219 37.398438 16.300781 37.398438 17 37.101563 C 17.601563 36.800781 17.699219 36.398438 17.601563 35.800781 C 17.5 35.601563 17.398438 35.398438 17.300781 35.199219 C 16.601563 33.800781 15.699219 32.5 14.601563 31.398438 C 14 30.800781 13.5 30.199219 12.800781 29.699219 C 12.199219 29.199219 11.601563 29.199219 11 29.601563 C 10.101563 30.199219 9.5 31 9.199219 32.101563 C 8.898438 33.199219 9.101563 34.300781 9.5 35.300781 C 10.5 38 12.199219 40.199219 14.601563 41.699219 C 18.199219 44 22.101563 44.5 26.101563 43.199219 C 30.699219 41.699219 33.601563 38.398438 35.199219 33.898438 C 35.898438 32 36 29.898438 36 27.898438 C 36 26.898438 35.898438 25.898438 35.601563 25 C 35.300781 24.199219 34.800781 23.5 34 23.101563 C 33.5 22.898438 33.101563 22.699219 32.601563 22.5 C 29.5 21.398438 26.300781 21.101563 23.101563 20.800781 C 22.398438 20.800781 21.800781 20.800781 21.101563 21 C 20.601563 21.199219 20.199219 21.5 20.199219 22.101563 C 20.101563 23.300781 20.5 24.300781 21.5 25 C 22.199219 25.5 23.101563 25.800781 24 26 C 26 26.398438 28.101563 26.398438 30.199219 26.398438 C 30.699219 26.398438 31.101563 26.398438 31.601563 26.5 C 32.101563 26.601563 32.199219 27 32.300781 27.5 C 32.398438 27.898438 32.101563 28.101563 31.800781 28.199219 C 31.199219 28.5 30.699219 28.699219 30.101563 28.898438 C 27.699219 29.800781 25.898438 31.398438 24.601563 33.601563 C 23.699219 35.199219 23.398438 36.898438 24.101563 38.699219 C 24.300781 39.101563 24.398438 39.5 24.5 40 C 24.601563 40.398438 24.699219 40.898438 24.601563 41.398438 C 23.601563 41.199219 23 40.699219 22.5 39.898438 C 22.101563 39.101563 21.898438 38.199219 21.800781 37.300781 C 21.699219 36.800781 21.699219 36.300781 21.699219 35.800781 C 21.101563 36.199219 20.398438 36.101563 19.699219 36 C 19.699219 36.199219 19.800781 36.300781 19.800781 36.398438 C 20.101563 37.601563 19.601563 38.699219 18.601563 39.398438 C 17.800781 40 16.800781 40 15.898438 39.800781 C 14.300781 39.398438 13.101563 38.398438 12.101563 37.101563 C 11.601563 36.398438 11.101563 35.601563 11 34.800781 C 10.699219 34 10.699219 33.601563 11.199219 33.101563 Z M 23.199219 19.199219 C 23.199219 19.199219 23.199219 19.101563 23.199219 19.101563 C 22.300781 16.398438 21.398438 13.601563 20.398438 10.898438 C 19.800781 9.199219 19.101563 7.398438 18.398438 5.699219 C 18.199219 5.199219 17.898438 4.699219 17.398438 4.300781 C 16.5 3.699219 15.5 4 15.199219 5 C 15.101563 5.398438 15 5.800781 15.101563 6.199219 C 15.101563 7.398438 15.398438 8.5 15.800781 9.601563 C 17 12.898438 18.101563 16.199219 19.300781 19.5 C 20.5 18.699219 21.898438 19.199219 23.199219 19.199219 Z M 30.800781 20.300781 C 30.800781 20.199219 30.898438 20.199219 30.898438 20.101563 C 32.300781 16.300781 33.601563 12.5 34.800781 8.601563 C 35 7.800781 35.199219 7.101563 35.101563 6.199219 C 35 5.398438 34.5 5 33.898438 4.898438 C 33.398438 4.898438 32.898438 5.101563 32.601563 5.5 C 32 6.199219 31.601563 7 31.300781 7.800781 C 29.699219 11.601563 28.5 15.5 27.199219 19.398438 C 27.199219 19.398438 27.199219 19.5 27.199219 19.601563 C 28.300781 19.800781 29.5 20 30.800781 20.300781 Z M 21.699219 32.300781 C 21.699219 32.101563 21.699219 31.898438 21.601563 31.699219 C 21.300781 31 21.101563 30.300781 20.800781 29.5 C 20 27.601563 19 25.699219 17.699219 24 C 17.300781 23.5 16.800781 23 16.199219 22.699219 C 14.898438 22.101563 13 23.300781 13.101563 24.800781 C 13.101563 24.800781 13.101563 24.898438 13.101563 24.898438 C 13.300781 25.398438 13.398438 26 13.601563 26.5 C 14.699219 28.699219 16.199219 30.601563 17.898438 32.398438 C 18.398438 32.898438 19 33.398438 19.699219 33.699219 C 20.699219 34.101563 21.699219 33.398438 21.699219 32.300781 Z M 23.601563 31.300781 C 24.398438 30.101563 25.5 29.300781 26.699219 28.398438 C 25.101563 28.300781 23.601563 28.101563 22.199219 27.601563 C 22.601563 28.800781 23.101563 30 23.601563 31.300781 Z "/>
</g>
</svg>
